# xmcd
#
# Track frame offsets:
#	150
#	19562
#	39425
#	59225
#	77787
#	97137
#	118437
#	134800
#	149262
#	169425
#
# Disc length: 2521 seconds
#
# Revision: 1
# Processed by: cddbd v1.5.1PL0 Copyright (c) Steve Scherf et al.
# Submitted via: CDex 1.50Beta5
#
DISCID=9d09d70a
DTITLE=刀根麻理子 - Vois d L’ame
DYEAR=1990
DGENRE=Pop
TTITLE0=ソワレの夜突然に
TTITLE1=やさしく愛して
TTITLE2=写真
TTITLE3=La Nuit
TTITLE4=瞬間のいたずら
TTITLE5=夢一途
TTITLE6=ミストラル
TTITLE7=Mefie Toi
TTITLE8=美しい友だち
TTITLE9=サヨナラの始まり
EXTD=
EXTT0=
EXTT1=
EXTT2=
EXTT3=
EXTT4=
EXTT5=
EXTT6=
EXTT7=
EXTT8=
EXTT9=
PLAYORDER=
